<svg width="400" height="400" viewBox="0 0 400 400" fill="none" xmlns="http://www.w3.org/2000/svg">
<path fill-rule="evenodd" clip-rule="evenodd" d="M239.828 131.611H225.422L208.776 80.3946L170.187 199.118H152.87L141.219 190.701L200.127 9.46445L239.828 131.611ZM173.369 241.358L69.9842 166.27H126.071L131.414 152.023L0 152.166L156.283 265.674L168.248 256.918L173.369 241.358ZM208 182.31H334.044L291.001 213.573L295.681 227.929L399.983 152.174H207.515L202.883 166.463L208 182.31ZM112.819 323.668L214.464 249.843L228.465 260.07L232.961 273.551L77.6512 386.282L117.529 263.598L129.313 272.922L112.819 323.668ZM234.986 214.454L273.625 333.33L231.603 302.934L218.97 311.206L322.683 386.536L263.258 203.927L249.687 203.935L234.986 214.454Z" fill="url(#paint0_linear_557_218)"/>
<defs>
<linearGradient id="paint0_linear_557_218" x1="1.49005e-06" y1="198" x2="399.983" y2="198" gradientUnits="userSpaceOnUse">
<stop stop-color="#080F4B"/>
<stop offset="1" stop-color="#2855CA"/>
</linearGradient>
</defs>
</svg>
