<svg width="338" height="83" viewBox="0 0 338 83" fill="none" xmlns="http://www.w3.org/2000/svg">
<path fill-rule="evenodd" clip-rule="evenodd" d="M311.329 20.3408H308.93L306.158 11.8119L299.732 31.5827H296.848L294.908 30.181L304.718 0L311.329 20.3408ZM116.222 24.9488H111.889V23.6706H131.079V24.9488H125.182L137.475 50.284L146.95 29.9701C147.259 29.3839 147.465 28.8588 147.603 28.4068C147.741 27.9564 147.81 27.5501 147.81 27.1893C147.81 26.377 147.431 25.806 146.675 25.5051C145.918 25.1899 144.095 24.9939 141.206 24.9043V23.6706H155.512V24.9488H154.91C153.535 24.9488 152.366 25.3984 151.437 26.286C150.491 27.1893 149.322 29.0979 147.913 32.0463L134.707 60.1929L133.847 60.6737L116.222 24.9488ZM186.162 58.2986H186.482H186.485L186.503 58.2979L186.942 58.2986H190.152V14.5675H179.055V13.2905H189.24C191.167 13.2905 192.886 13.1249 194.416 12.7787C195.929 12.4473 197.408 11.9061 198.818 11.1396V58.2986H204.509V59.5756H187.711C186.497 60.1074 185.183 60.3725 183.766 60.3725C181.618 60.3725 179.828 59.8771 178.385 58.9001C176.923 57.9067 175.995 56.5094 175.548 54.6744C174.206 56.6745 172.316 58.1783 169.89 59.1701C167.448 60.1774 164.457 60.6737 160.898 60.6737C157.476 60.6737 154.639 59.8024 152.386 58.0724C150.133 56.3428 149.016 54.194 149.016 51.6366C149.016 47.773 151.234 44.7665 155.687 42.6317C160.14 40.5109 166.434 39.4433 174.601 39.4433H175.101V30.3315C175.101 28.0305 174.482 26.377 173.243 25.3701C171.989 24.364 169.976 23.8507 167.192 23.8507C164.835 23.8507 162.772 24.3484 161 25.3545C159.213 26.3479 158.335 27.3249 158.335 28.2567C158.335 28.3466 158.8 28.7834 159.763 29.5807C160.725 30.3772 161.207 31.2494 161.207 32.2265C161.207 33.5501 160.811 34.587 160.004 35.3538C159.196 36.1202 158.112 36.4972 156.77 36.4972C155.326 36.4972 154.176 36.1047 153.332 35.3233C152.473 34.5569 152.042 33.5197 152.042 32.2265C152.042 29.5496 153.505 27.2796 156.427 25.3984C159.35 23.5208 163.013 22.5731 167.397 22.5731C169.581 22.5731 171.627 22.8436 173.553 23.3704C175.461 23.8967 177.25 24.6939 178.936 25.7455C180.55 26.7684 181.651 27.8514 182.253 28.9629C182.856 30.0759 183.165 31.8959 183.165 34.422V52.5241C183.165 54.4655 183.413 55.898 183.938 56.8253C184.438 57.7068 185.183 58.2509 186.162 58.2986ZM175.101 52.9609V40.8122C174.739 40.7818 174.326 40.7516 173.897 40.7361C173.45 40.7219 172.83 40.7219 172.022 40.7219C167.259 40.7219 163.718 41.533 161.431 43.1426C159.126 44.7512 157.975 47.2473 157.975 50.6312C157.975 53.1858 158.611 55.1707 159.883 56.5697C161.173 57.9828 162.943 58.6881 165.23 58.6881C167.242 58.6881 169.151 58.1783 170.939 57.1403C172.745 56.118 174.12 54.7207 175.101 52.9609ZM211.762 36.7518H227.684V32.5264C227.684 29.5651 227.031 27.3696 225.724 25.9715C224.417 24.5574 222.372 23.8507 219.621 23.8507C217.007 23.8507 215.029 24.6788 213.722 26.3171C212.415 27.9564 211.762 30.4373 211.762 33.7597V36.7518ZM211.762 38.0304V48.4797C211.762 52.2236 212.587 54.9611 214.238 56.66C215.871 58.3578 218.502 59.2148 222.096 59.2148C225.69 59.2148 228.784 58.1938 231.416 56.1331C234.029 54.0736 235.886 51.232 236.952 47.5928H238.517C237.279 51.7286 235.181 54.9611 232.224 57.2908C229.266 59.6067 225.758 60.7639 221.683 60.7639C216.387 60.7639 211.83 58.9301 208.065 55.2758C204.283 51.6228 202.391 47.1725 202.391 41.9099C202.391 36.4218 204.093 31.8208 207.498 28.1218C210.919 24.4236 215.081 22.5731 220.034 22.5731C224.796 22.5731 228.853 24.0324 232.224 26.9331C235.576 29.8352 237.451 33.5346 237.812 38.0304H211.762ZM249.847 53.2763C249.847 55.2757 250.191 56.689 250.862 57.5315C251.532 58.3578 252.667 58.7801 254.284 58.7801C255.987 58.7801 257.481 58.3433 258.755 57.4859C260.044 56.6146 260.99 55.3823 261.625 53.8031H263.139C262.365 55.9976 261.076 57.6975 259.287 58.8849C257.499 60.0736 255.298 60.6737 252.719 60.6737C251.068 60.6737 249.52 60.4339 248.06 59.9674C246.598 59.5008 245.342 58.8247 244.31 57.9379C243.503 57.26 242.918 56.4936 242.574 55.6375C242.213 54.7646 242.04 53.5184 242.04 51.9088V50.1038V24.9488H234.888V23.6706C238.945 23.6706 242.075 22.7236 244.258 20.8135C246.443 18.9046 247.904 15.3048 248.644 11.1396H249.847V23.6706H261.281V24.9488H249.847V53.2763ZM72.4974 36.317C72.4974 39.7446 73.1862 42.2554 74.5616 43.8495C75.9371 45.428 78.1379 46.2256 81.1642 46.2256C84.157 46.2256 86.2706 45.3969 87.4915 43.7285C88.7125 42.0743 89.3321 39.0231 89.3321 34.6019C89.3321 30.692 88.6782 27.8957 87.3887 26.1968C86.0993 24.5124 83.9839 23.6706 81.0611 23.6706C77.9491 23.6706 75.7306 24.5874 74.4405 26.423C73.151 28.2567 72.4974 31.5493 72.4974 36.317ZM86.9593 61.1997H77.8978C73.9945 61.1997 70.9844 62.0263 68.8698 63.6958C66.7548 65.3493 65.7058 67.7105 65.7058 70.7628C65.7058 73.8154 66.978 76.236 69.5404 78.0094C72.085 79.785 75.5586 80.6728 79.9605 80.6728C85.5319 80.6728 90.2255 79.3485 94.043 76.6877C97.8433 74.026 99.7523 70.8535 99.7523 67.1538C99.7523 64.9751 98.8403 63.441 97.0011 62.5378C95.1779 61.6507 91.8249 61.1997 86.9593 61.1997ZM9.78358 46.7506C9.78358 51.2175 10.5402 54.4191 12.0535 56.3739C13.5673 58.328 16.0251 59.3051 19.4644 59.3051C22.4389 59.3051 25.0704 58.5542 27.3228 57.0355C29.5577 55.531 31.3804 53.3071 32.7564 50.3743V34.2416C31.4492 31.0689 29.6435 28.6174 27.3747 26.8877C25.087 25.1588 22.5081 24.2866 19.6537 24.2866C16.3696 24.2866 13.8939 25.2947 12.2601 27.3249C10.6094 29.3537 9.78358 32.377 9.78358 36.4063V46.7506ZM101.779 15.7956C101.779 14.7131 102.305 13.7662 103.356 12.9693C104.389 12.1572 105.641 11.7518 107.116 11.7518C108.613 11.7518 109.866 12.1416 110.898 12.9384C111.928 13.736 112.434 14.6827 112.434 15.7956C112.434 16.9529 111.928 17.9016 110.917 18.6674C109.927 19.4349 108.653 19.8091 107.116 19.8091C105.6 19.8091 104.346 19.4192 103.316 18.638C102.285 17.8705 101.779 16.9221 101.779 15.7956ZM49.1064 15.7956C49.1064 14.7131 49.6326 13.7662 50.6837 12.9693C51.7154 12.1572 52.9678 11.7518 54.4441 11.7518C55.9405 11.7518 57.1936 12.1416 58.2247 12.9384C59.255 13.736 59.7615 14.6827 59.7615 15.7956C59.7615 16.9529 59.255 17.9016 58.2447 18.6674C57.2539 19.4349 55.9799 19.8091 54.4441 19.8091C52.9284 19.8091 51.6738 19.4192 50.6428 18.638C49.6115 17.8705 49.1064 16.9221 49.1064 15.7956ZM100.297 58.3111H102.835V24.9607H99.266C97.0007 24.8725 95.4975 24.9959 94.2723 25.3784C93.8541 25.5282 93.441 25.7095 93.0317 25.9218C92.7957 26.0463 92.5598 26.1826 92.3239 26.3327L93.1739 27.0165L93.1663 27.0234C94.4392 28.3778 95.3844 29.7155 96.0203 31.0537C96.6565 32.3915 96.9832 33.7448 96.9832 35.1287C96.9832 38.4962 95.4187 41.4137 92.2719 43.8495C89.1252 46.2852 85.3945 47.5026 81.0611 47.5026C79.9605 47.5026 78.3784 47.2774 76.3322 46.8271C74.2868 46.3598 72.7738 46.1343 71.7926 46.1343C69.7122 46.1343 67.9751 46.5708 66.5486 47.4579C65.1384 48.3436 64.434 49.3972 64.434 50.6312C64.434 52.0136 65.1214 52.9609 66.4791 53.4718C67.8377 53.9827 70.881 54.2393 75.6278 54.2393H84.2933C91.4472 54.2393 96.1929 55.0212 98.5145 56.5697C99.213 57.0355 99.8064 57.6166 100.297 58.3111ZM32.9099 53.6222C31.088 56.0132 29.145 57.7719 27.0311 58.9302C24.9334 60.0871 22.5942 60.6737 20.0149 60.6737C14.2024 60.6737 9.47527 58.9001 5.82902 55.3668C2.18338 51.8334 0.361115 47.2172 0.361115 41.5191C0.361115 36.3765 2.21841 31.956 5.94949 28.2411C9.68081 24.5283 14.0485 22.6642 19.052 22.6642C22.0444 22.6642 24.7264 23.386 27.082 24.814C29.4549 26.2573 31.3462 28.3159 32.7564 30.978V14.5675H21.6452V13.2905H31.844C33.6673 13.2905 35.3364 13.1094 36.8832 12.7638C38.4301 12.4183 39.9438 11.8759 41.4229 11.1396V23.6706H41.3774V24.9488H41.4229V58.2986H44.3487H47.4239H50.1944V24.9488H41.4229V23.6706H49.3008C51.45 23.6706 53.3246 23.5803 54.9413 23.3994C56.5401 23.2341 57.8472 22.9498 58.8616 22.5731V58.2986H64.2454C62.9957 56.7671 62.3702 54.9621 62.3702 52.8703C62.3702 50.4344 63.2131 48.5404 64.8979 47.1865C66.5655 45.849 69.0071 45.0971 72.1881 44.9469C69.643 43.4431 67.7692 41.8948 66.5836 40.3013C65.3965 38.7066 64.7942 36.9485 64.7942 35.0384C64.7942 31.5203 66.3417 28.5572 69.4546 26.167C72.5666 23.7753 76.5038 22.5731 81.2677 22.5731C83.4851 22.5731 85.5142 22.8747 87.3372 23.4765C88.782 23.9476 90.0687 24.6068 91.2043 25.4484C91.7319 25.0838 92.2771 24.7697 92.8414 24.5093C94.0973 23.9223 95.4376 23.6373 96.8482 23.6373H96.9375L96.9732 23.6249H101.926C104.075 23.6249 105.964 23.5928 107.581 23.4118C109.18 23.2469 110.487 22.9602 111.501 22.5856V58.3111H117.189V59.5881H101.024C101.689 61.0534 102.021 62.883 102.021 65.0796C102.021 70.0704 99.9756 74.1608 95.9002 77.3487C91.8249 80.5368 86.5463 82.1317 80.0633 82.1317C74.1837 82.1317 69.4712 81.122 65.913 79.1077C62.3526 77.0928 60.5652 74.4933 60.5652 71.2895C60.5652 69.3503 61.425 67.5303 63.1269 65.8014C64.8468 64.0874 67.254 62.6437 70.3319 61.4712C68.4636 61.3232 66.8597 60.6948 65.51 59.5756H47.4239H44.3487H32.9099V53.6222ZM327.019 28.7837H306.029L305.177 26.1448L305.948 23.7652H338L320.631 36.3805L319.851 33.9899L327.019 28.7837ZM300.262 38.6169L283.046 26.1126H292.386L293.275 23.7401L271.391 23.7639L297.417 42.6663L299.409 41.2081L300.262 38.6169ZM290.179 52.3239L307.106 40.0299L309.437 41.733L310.186 43.978L284.322 62.7509L290.963 42.3206L292.926 43.8732L290.179 52.3239ZM310.523 34.1367L316.958 53.9328L309.96 48.8711L307.856 50.2487L325.127 62.7931L315.231 32.3836L312.971 32.3849L310.523 34.1367Z" fill="#0A1250"/>
</svg>
